<svg xmlns:dc="http://purl.org/dc/elements/1.1/" xmlns:cc="http://creativecommons.org/ns#" xmlns:rdf="http://www.w3.org/1999/02/22-rdf-syntax-ns#" xmlns:svg="http://www.w3.org/2000/svg" xmlns="http://www.w3.org/2000/svg" viewBox="0 0 360 360" fill="none"><metadata><rdf:RDF><cc:Work><dc:format>image/svg+xml</dc:format><dc:type rdf:resource="http://purl.org/dc/dcmitype/StillImage"/><dc:title>Avatar Illustration System</dc:title><dc:creator><cc:Agent><dc:title>Micah Lanier</dc:title></cc:Agent></dc:creator><dc:source>https://www.figma.com/community/file/829741575478342595</dc:source><cc:license rdf:resource="https://creativecommons.org/licenses/by/4.0/"/></cc:Work><cc:License rdf:about="https://creativecommons.org/licenses/by/4.0/"><cc:permits rdf:resource="https://creativecommons.org/ns#Reproduction"/><cc:permits rdf:resource="https://creativecommons.org/ns#Distribution"/><cc:permits rdf:resource="https://creativecommons.org/ns#DerivativeWorks"/><cc:requires rdf:resource="https://creativecommons.org/ns#Notice"/><cc:requires rdf:resource="https://creativecommons.org/ns#Attribution"/></cc:License></rdf:RDF></metadata><mask id="avatarsRadiusMask"><rect width="360" height="360" rx="0" ry="0" x="0" y="0" fill="#fff"/></mask><g mask="url(#avatarsRadiusMask)"><g transform="translate(80 23)"><path d="M154 319.5c-14.4-20-25.667-58.666-27-78L58.5 212 30 319.5h124Z" fill="rgba(249, 201, 182, 1)" stroke="#000" stroke-width="4"/><mask id="baseStandard-a" style="mask-type:alpha" maskUnits="userSpaceOnUse" x="30" y="212" width="124" height="118"><path d="M154 329.5c-14.4-20-25.667-68.666-27-88L58.5 212 30 329.5h124Z" fill="rgba(249, 201, 182, 1)"/></mask><g mask="url(#baseStandard-a)"><ellipse cx="124" cy="210" rx="59" ry="54" fill="#000" style="mix-blend-mode:multiply"/></g><path d="m181.939 151.374.002.009.093.389.144.654c8.851 40.206-16.109 80.258-56.315 89.89-40.205 9.633-80.606-14.759-90.935-54.61l-.19-.733-16.735-69.844-.067-.289C8.512 76.334 33.544 35.757 74.048 26.053c40.504-9.704 81.206 15.123 91.161 55.501l.051.208.02.083.001.005.048.198.047.199.002.004 16.396 68.437.003.009.081.338.081.339Z" fill="rgba(249, 201, 182, 1)" stroke="#000" stroke-width="4"/><g><g transform="translate(34 102.3)"/></g></g><g transform="translate(170 183)"><path d="M26 16.697c4.167-2.334 21-5.3 21 1.5 0 8.5-11.5 8-11.5 8s13.045-3.162 10.5 6c-2.5 9-9.5 5.5-11.5 4.5" stroke="rgba(0, 0, 0, 1)" stroke-width="4"/></g><g transform="translate(110 102)"><g stroke="rgba(0, 0, 0, 1)" stroke-width="4" stroke-linecap="round"><path d="M99 10.214c5.667-2.666 19-5.1 27 6.5M23.58 35.521c2.07-5.91 9.681-17.125 23.562-14.699M26.074 29.458l-6.148-5.427M122.961 11.157l6.148-5.427M32.523 23.814l-4.046-7.132M115.512 7.513l4.047-7.132M40.6 20.2l-2.202-7.9M106.436 6.9l2.201-7.9"/></g></g><g transform="translate(49 11)"><g stroke="rgba(119, 49, 29, 1)" stroke-width="4"><path d="M140 56c14.667-.667 40.4-8.8 26-36M114 54c14.667-.667 40.4-8.8 26-36M78 65c14.667-.667 40.4-8.8 26-36"/></g></g><g transform="translate(142 119)"><g fill="#000"><ellipse cx="16.117" cy="28.927" rx="9" ry="10" transform="rotate(-6.776 16.117 28.927)"/><ellipse cx="80.149" cy="18.923" rx="9" ry="10" transform="rotate(-6.276 80.149 18.923)"/></g><g transform="translate(-40 -8)"><g stroke="rgba(224, 221, 255, 1)" stroke-width="4"><circle cx="122.5" cy="28" r="26"/><circle cx="55.5" cy="37" r="26"/><path d="M97.5 35a8 8 0 0 0-16 0M30 39 0 44.5"/></g></g></g><g transform="rotate(-8 1149.438 -1186.916)"><path d="M16.5 7c-.333 3.833 0 12.2 4 15 5 3.5-.5 12-10.5 10" stroke="#000" stroke-width="4"/></g><g transform="translate(84 154)"><path d="M30.5 6.176A23.778 23.778 0 0 0 23.08 5c-10.493 0-19 6.5-18 18.5 1.042 12.5 8.507 17 19 17 1.168 0 2.31-.102 3.42-.299 1.21-.214 2.381-.54 3.5-.966" stroke="#000" stroke-width="8"/><path d="M31.5 39.036a19.382 19.382 0 0 1-7.42 1.464c-10.493 0-17.958-4.5-19-17-1-12 7.507-18.5 18-18.5 3.138 0 6.187.606 8.92 1.73l-.5 32.306Z" fill="rgba(249, 201, 182, 1)"/><path d="M27.5 13.5c-4-1.833-12.8-2.8-16 8" stroke="#000" stroke-width="4"/><path d="M17 14c2.167 1.833 6.3 7.5 5.5 15.5" stroke="#000" stroke-width="4"/><g transform="translate(3 35)"><circle cx="25" cy="2" r="4" fill="rgba(255, 237, 239, 1)"/><circle cx="26" cy="1" r="1" fill="#fff"/></g></g><g transform="translate(53 272)"><path d="M260.366 90.863h-272.91l.104-.212C-7.895 81.395.49 64.319 11.403 49.04c6.193-8.67 13.127-16.654 20.539-22.27 7.412-5.615 15.12-8.73 22.95-8.045 15.054 1.317 28.463 9.56 41.925 17.834 1.275.784 2.551 1.569 3.829 2.348 14.485 8.827 29.359 17.023 45.719 13.436 5.534-1.213 9.264-3.81 11.611-7.164 2.314-3.307 3.146-7.15 3.29-10.663.144-3.518-.395-6.843-.955-9.26a39.89 39.89 0 0 0-.747-2.773c3.625-3.649 7.463-5.774 11.425-6.73 4.295-1.038 8.887-.738 13.718.69 9.73 2.879 20.14 10.253 30.3 19.735 18.614 17.373 35.693 41.144 45.359 54.684Z" fill="rgba(172, 102, 81, 1)" stroke="#000" stroke-width="4.274"/></g></g></svg>